:version 1.10
:name ASF
:units
  mass 1
  length 1
  angle deg
:documentation
  ASF file generated by Kaydara
:root
  axis xyz
  order  tx ty tz rx ry rz
  position 0 0 0
  orientation 0 0 0
:bonedata
  begin
    id 1
    name RightUpLegDummy
    direction -0.718183 -0.695806 0.00816078
    length 4.904
    axis 0 0 0 xyz
  end
  begin
    id 2
    name RightUpLeg
    direction 3.53989e-006 -0.995788 0.0916897
    length 17.4976
    axis -3.49089 -0.000906621 0.000287158 xyz
    dof rx ry rz
  end
  begin
    id 3
    name RightLeg
    direction 0.00371093 -0.995096 -0.0988418
    length 16.5821
    axis 3.68512 0.0193738 -0.131023 xyz
    dof rx ry rz
  end
  begin
    id 4
    name RightFoot
    direction 0.000791514 -0.46099 0.887405
    length 3.77069
    axis 4.84075e-005 -0.120479 -0.188788 xyz
    dof rx ry rz
  end
  begin
    id 5
    name RightToes
    direction 0.00124746 -0.014064 0.9999
    length 3.85082
    axis 0.00048216 0.542163 -0.142577 xyz
    dof rx ry rz
  end
  begin
    id 6
    name SpineDummy
    direction 8.3039e-015 1 4.57515e-016
    length 4.6813
    axis 0 0 0 xyz
  end
  begin
    id 7
    name Spine
    direction -4.63632e-008 0.999988 0.00495137
    length 10.1015
    axis -0.00138897 0.000121419 3.25764e-006 xyz
    dof rx ry rz
  end
  begin
    id 8
    name Spine1
    direction 0 0 0
    length 0
    axis -0.00138896 0.000121452 2.39764e-006 xyz
    dof rx ry rz
  end
  begin
    id 9
    name HEadDummy
    direction -3.91456e-008 0.999999 0.00127422
    length 3.43865
    axis -0.00138896 0.000121452 2.39764e-006 xyz
  end
  begin
    id 10
    name HEad
    direction -0.0222688 0.980941 0.193023
    length 5.12695
    axis -0.00138895 0.000121452 2.39764e-006 xyz
    dof rx ry rz
  end
  begin
    id 11
    name LeftShoulder1Dummy
    direction 0.998891 -0.0402508 -0.0244456
    length 3.5433
    axis -0.00138896 0.000121452 2.39764e-006 xyz
  end
  begin
    id 12
    name LeftShoulder1
    direction 0.99951 -0.000327743 0.0313091
    length 4.05031
    axis -0.00138896 0.000121452 2.39764e-006 xyz
    dof rx ry rz
  end
  begin
    id 13
    name LeftArm
    direction 0.998561 -0.00100054 -0.0536182
    length 10.3537
    axis -23.1894 0.134784 0.96751 xyz
    dof rx ry rz
  end
  begin
    id 14
    name LeftForeArm
    direction 0.998903 0.00866434 0.046012
    length 8.70632
    axis -9.91835 -0.06569 -0.177792 xyz
    dof rx ry rz
  end
  begin
    id 15
    name LeftHand
    direction 0.992938 -0.0411636 0.11126
    length 5.32135
    axis -0.00960227 -0.00340091 0.185174 xyz
    dof rx ry rz
  end
  begin
    id 16
    name RightShoulderDummy
    direction -0.998891 -0.0402509 -0.0244414
    length 3.5433
    axis -0.00138896 0.000121452 2.39764e-006 xyz
  end
  begin
    id 17
    name RightShoulder
    direction -0.99951 -0.000327827 0.0313133
    length 4.05031
    axis 0.215806 0.000203644 -0.00680151 xyz
    dof rx ry rz
  end
  begin
    id 18
    name RightArm
    direction -0.998573 -0.000999583 -0.053403
    length 10.3947
    axis -23.2009 -0.134239 -0.9641 xyz
    dof rx ry rz
  end
  begin
    id 19
    name RightForeArm
    direction -0.998898 0.00868026 0.0461306
    length 8.68355
    axis -9.92322 0.0658061 0.178869 xyz
    dof rx ry rz
  end
  begin
    id 20
    name RightHand
    direction -0.992843 -0.0414603 0.112003
    length 5.28593
    axis -0.00960634 0.00330671 -0.185226 xyz
    dof rx ry rz
  end
  begin
    id 21
    name LeftUpLegDummy
    direction 0.718183 -0.695806 0.00816078
    length 4.904
    axis 0 0 0 xyz
  end
  begin
    id 22
    name LeftUpLeg
    direction -6.8115e-006 -0.995793 0.0916336
    length 17.4976
    axis -3.48766 0.00143441 -0.000523914 xyz
    dof rx ry rz
  end
  begin
    id 23
    name LeftLeg
    direction -0.00601357 -0.995091 -0.0987824
    length 16.5821
    axis 3.68177 -0.00654038 -0.00028478 xyz
    dof rx ry rz
  end
  begin
    id 24
    name LeftFoot
    direction -0.00417578 -0.460984 0.887399
    length 3.77069
    axis 1.87232e-006 4.66002e-005 -8.1837e-006 xyz
    dof rx ry rz
  end
  begin
    id 25
    name LeftToes
    direction 0.00818058 -0.00485161 0.999955
    length 3.85048
    axis 1.06246e-005 4.65855e-005 -8.18502e-006 xyz
    dof rx ry rz
  end
:hierarchy
  begin
    root RightUpLegDummy SpineDummy LeftUpLegDummy
    RightUpLegDummy RightUpLeg
    RightUpLeg RightLeg
    RightLeg RightFoot
    RightFoot RightToes
    SpineDummy Spine
    Spine Spine1
    Spine1 HEadDummy LeftShoulder1Dummy RightShoulderDummy
    HEadDummy HEad
    LeftShoulder1Dummy LeftShoulder1
    LeftShoulder1 LeftArm
    LeftArm LeftForeArm
    LeftForeArm LeftHand
    RightShoulderDummy RightShoulder
    RightShoulder RightArm
    RightArm RightForeArm
    RightForeArm RightHand
    LeftUpLegDummy LeftUpLeg
    LeftUpLeg LeftLeg
    LeftLeg LeftFoot
    LeftFoot LeftToes
  end

:SAMPLES-PER-SECOND 30
:FRAME-RANGE 1-668
:FULLY-SPECIFIED
:DEGREES
1
root  12.1809 40.2341 25.0588 -174.58 17.7018 179.708
RightUpLeg  -4.62511 -4.10732 -1.44693
RightLeg  8.36038 -8.60048 -0.432468
RightFoot  -7.49599 -0.173116 3.71468
RightToes  5.38607e-012 1.2921e-014 -6.02303e-014
Spine  -14.5718 -0.400109 4.21645
Spine1  14.5695 0.732783 -5.80151
HEad  15.9764 6.67916 -12.9511
LeftShoulder1  0.6182 0.755138 -17.863
LeftArm  -17.6484 5.1354 -4.953
LeftForeArm  32.3712 -22.326 -3.36529
LeftHand  0.00736823 6.83759 3.24207
RightShoulder  1.51482 5.8431 9.2669
RightArm  -18.5971 54.2898 33.4159
RightForeArm  40.4163 32.6418 4.92723
RightHand  -0.185668 -3.02573 -8.5585
LeftUpLeg  -5.91623 0.810004 -1.77333
LeftLeg  6.5607 10.0204 3.2502
LeftFoot  -5.23494 0.0813405 -0.783231
LeftToes  -6.11857e-011 5.00151e-011 -2.22593e-011
2
root  12.1692 40.2299 25.1178 -174.742 17.4423 179.736
RightUpLeg  -4.59627 -4.13444 -1.38757
RightLeg  8.54681 -8.80886 -0.517125
RightFoot  -7.51663 -0.172328 3.70246
RightToes  5.38607e-012 1.2921e-014 -6.02303e-014
Spine  -14.6429 -0.202084 4.56202
Spine1  14.7411 1.0483 -6.28519
HEad  16.6217 5.28233 -11.8184
LeftShoulder1  0.734902 0.243049 -17.602
LeftArm  -17.909 4.30184 -5.96763
LeftForeArm  32.6733 -22.6329 -3.33944
LeftHand  0.0178479 7.04263 3.61166
RightShoulder  1.3337 6.73672 5.59026
RightArm  -31.3031 61.6875 28.3558
RightForeArm  47.3694 14.9997 3.89112
RightHand  -0.237207 -2.93835 -10.763
LeftUpLeg  -5.95998 0.833346 -1.71746
LeftLeg  6.77639 9.75699 3.24763
LeftFoot  -5.2376 0.0771457 -0.718037
LeftToes  -6.11857e-011 5.00151e-011 -2.22593e-011
3
root  12.1748 40.2263 25.1725 -174.795 17.0285 179.81
RightUpLeg  -4.56677 -4.42473 -1.34542
RightLeg  8.60513 -8.95947 -0.358782
RightFoot  -7.50876 -0.167518 3.6278
RightToes  5.38607e-012 1.2921e-014 -6.02303e-014
Spine  -14.5567 0.253858 5.27222
Spine1  14.8309 1.73571 -7.2069
HEad  17.1512 3.29937 -10.5773
LeftShoulder1  0.873221 -0.400163 -17.1355
LeftArm  -17.9982 3.45523 -7.14434
LeftForeArm  33.5905 -23.7721 -3.34808
LeftHand  0.0289543 7.26156 3.91727
RightShoulder  1.105 7.30304 2.34649
RightArm  -40.1662 65.5865 23.0721
RightForeArm  51.9858 2.28861 0.263358
RightHand  -0.0719103 -4.8351 -11.6007
LeftUpLeg  -6.11146 0.83186 -1.59297
LeftLeg  6.99553 9.34409 3.2395
LeftFoot  -5.25703 0.0751639 -0.687237
LeftToes  -6.11857e-011 5.00151e-011 -2.22593e-011
4
root  12.2062 40.2312 25.1974 -174.621 16.1267 179.914
RightUpLeg  -4.5008 -4.20572 -1.12488
RightLeg  8.33279 -10.0925 -0.406485
RightFoot  -7.42752 -0.173409 3.71924
RightToes  5.38607e-012 1.2921e-014 -6.02303e-014
Spine  -14.4012 0.434751 5.7753
Spine1  14.6022 2.17579 -8.18463
HEad  17.2513 1.60336 -9.0029
LeftShoulder1  0.920257 -0.627609 -16.9554
LeftArm  -18.2149 2.9273 -7.35195
LeftForeArm  34.7115 -25.9629 -3.73305
LeftHand  0.0409544 7.43078 4.29063
RightShoulder  0.915167 6.89479 0.692747
RightArm  -44.4287 66.6682 21.2601
RightForeArm  52.4998 -2.44879 -2.72332
RightHand  -0.033689 -5.21305 -8.66402
LeftUpLeg  -6.44581 0.685537 -1.42706
LeftLeg  7.12085 8.53829 3.2357
LeftFoot  -5.18638 0.0846468 -0.834616
LeftToes  -6.11857e-011 5.00151e-011 -2.22593e-011
5
root  12.2594 40.2417 25.1917 -174.371 14.9888 179.95
RightUpLeg  -4.39123 -4.01072 -0.963971
RightLeg  7.91819 -11.4251 -0.380289
RightFoot  -7.33547 -0.175095 3.7454
RightToes  5.38607e-012 1.2921e-014 -6.02303e-014
Spine  -14.3941 0.264615 5.52882
Spine1  14.2903 2.124 -8.49373
HEad  17.2169 0.400912 -7.38565
LeftShoulder1  0.921674 -0.590267 -17.2384
LeftArm  -18.4331 2.7492 -6.78129
LeftForeArm  34.3182 -27.2398 -4.02563
LeftHand  0.0636906 7.37984 5.64855
RightShoulder  0.885552 6.25051 1.01759
RightArm  -43.5991 64.8493 22.1331
RightForeArm  48.9051 1.67328 -1.68054
RightHand  -0.0453088 -4.42088 -2.80778
LeftUpLeg  -6.75666 0.565947 -1.29066
LeftLeg  7.03054 7.55525 3.14286
LeftFoot  -5.06831 0.0730519 -0.654412
LeftToes  -6.11857e-011 5.00151e-011 -2.22593e-011
6
root  12.3169 40.2513 25.1593 -174.238 14.003 179.98
RightUpLeg  -4.1293 -3.79589 -0.814791
RightLeg  7.5011 -12.6057 -0.36226
RightFoot  -7.29397 -0.174104 3.73002
RightToes  5.38607e-012 1.2921e-014 -6.02303e-014
Spine  -14.4111 -0.00549283 4.88093
Spine1  14.0848 1.83766 -8.231
HEad  17.3092 -0.438407 -6.3745
LeftShoulder1  0.879786 -0.411741 -17.2477
LeftArm  -18.3174 2.44422 -6.63036
LeftForeArm  33.0797 -25.6081 -3.74118
LeftHand  0.0862458 7.38677 6.79658
RightShoulder  0.964072 5.52703 2.88117
RightArm  -36.8493 61.8979 22.3148
RightForeArm  45.1403 10.6567 3.51971
RightHand  0.147248 -1.21695 4.32932
LeftUpLeg  -6.77286 0.555962 -1.16868
LeftLeg  6.72908 6.56577 3.03247
LeftFoot  -4.95338 0.0771019 -0.717356
LeftToes  -6.11857e-011 5.00151e-011 -2.22593e-011
7
root  12.3655 40.2525 25.1094 -174.208 13.3199 179.98
RightUpLeg  -3.86613 -3.70732 -0.724648
RightLeg  7.26656 -13.3692 -0.358902
RightFoot  -7.3454 -0.178964 3.80545
RightToes  5.38607e-012 1.2921e-014 -6.02303e-014
Spine  -14.4756 -0.223658 4.28222
Spine1  14.1349 1.55539 -7.80514
HEad  17.4716 -0.549569 -6.70223
LeftShoulder1  0.805367 -0.119159 -17.0823
LeftArm  -19.1859 1.98628 -6.75084
LeftForeArm  32.1619 -22.0542 -3.39375
LeftHand  0.0677055 7.50631 5.52581
RightShoulder  1.04365 5.36332 4.15561
RightArm  -13.4156 57.9351 23.5742
RightForeArm  24.3866 24.2498 3.90528
RightHand  0.96741 4.06411 11.5572
LeftUpLeg  -6.66921 0.54574 -1.12207
LeftLeg  6.51255 5.90282 3.00572
LeftFoot  -4.94679 0.0759372 -0.699254
LeftToes  -6.11857e-011 5.00151e-011 -2.22593e-011
8
root  12.3988 40.2485 25.0578 -174.127 12.8744 179.937
RightUpLeg  -3.82547 -3.75489 -0.723286
RightLeg  7.28545 -13.7529 -0.372068
RightFoot  -7.46757 -0.180135 3.82362
RightToes  5.38607e-012 1.2921e-014 -6.02303e-014
Spine  -14.4739 -0.421408 3.8666
Spine1  14.1185 1.32101 -7.54532
HEad  17.4757 -0.344575 -7.65935
LeftShoulder1  0.748793 0.0934375 -16.8588
LeftArm  -20.6665 2.44441 -6.73389
LeftForeArm  32.0131 -18.9198 -3.89186
LeftHand  0.0394192 7.43825 4.19749
RightShoulder  1.12534 5.25113 5.41484
RightArm  -3.41246 53.4429 23.5879
RightForeArm  16.1225 39.1479 8.10825
RightHand  1.72038 6.36917 16.4812
LeftUpLeg  -6.7084 0.496027 -1.1356
LeftLeg  6.48941 5.50796 2.9934
LeftFoot  -4.9763 0.0744572 -0.676254
LeftToes  -6.11857e-011 5.00151e-011 -2.22593e-011
